<?xml version="1.0"?>
<svg xmlns:rdf="http://www.w3.org/1999/02/22-rdf-syntax-ns#" xmlns="http://www.w3.org/2000/svg" xmlns:cc="http://creativecommons.org/ns#" xmlns:xlink="http://www.w3.org/1999/xlink" xmlns:dc="http://purl.org/dc/elements/1.1/" xmlns:svg="http://www.w3.org/2000/svg" id="svg2706" viewBox="0 0 245.53 293.88" version="1.0">
  <g id="layer1" transform="translate(-269.74 -382.05)">
    <path id="path4349" d="m476.36 382.07c-3.37 0.3-8.91 4.05-13 8.97-1.85 2.22-4.49 5.19-5.88 6.6-1.39 1.4-6.2 6.85-10.69 12.09-13.54 15.83-14.17 16.24-31.18 21.78-4.32 1.41-9.16 3.4-10.78 4.44-3.2 2.04-11.28 10.05-12.91 12.78-6.02 10.12-12.62 19.97-14.59 21.78-1.35 1.23-3.01 3.67-3.69 5.44-0.8 2.07-3.28 4.91-7.03 8-3.2 2.63-6.89 6.03-8.19 7.56-1.34 1.57-9.45 7.28-18.56 13.09-8.9 5.67-16.61 10.91-17.16 11.66-2.32 3.14 5.99 9.3 16 11.84 1.97 0.5 3.7 1.53 3.84 2.29 0.15 0.75-1.74 3.95-4.21 7.09-5.03 6.35-7.04 13.04-4.75 15.81 1.79 2.18-1 6.7-6.63 10.72-5.42 3.88-10.07 8.99-12.25 13.44-0.98 2-2.37 4-3.09 4.47-0.73 0.46-1.7 2.7-2.16 5-0.45 2.29-1.58 5.72-2.5 7.62-2.08 4.33-7.84 11.93-10.16 13.41-0.95 0.61-1.88 1.65-2.06 2.34s-22.66 20.49-24.62 23.05l-0.37 42.59h172.09l0.78-3.17c5.32-4.21 11.06-8.94 12.22-11.37 2.16-4.57 16.2-10.17 15.71-15h-1.78c0.14-0.14 0.27-0.24 0.41-0.38-1.4-2.2-10.18-32.67-9.63-38.59 0.24-2.46 0.06-5.93-0.4-7.72-1.33-5.23-0.73-11.89 1.44-15.97 1.49-2.81 1.72-4.77 0.84-7.66-0.7-2.29-0.66-4.54 0.09-5.5 1.15-1.45 13.04-5.93 15.88-5.97 0.62 0 0.62-0.81 0-1.78s-0.68-2.32-0.16-3.03c0.53-0.71 0.54-1.95 0.03-2.75-0.5-0.79-0.58-2.78-0.15-4.4 0.43-1.63 1.26-6.79 1.84-11.47 0.59-4.68 1.49-8.77 2-9.1 1.01-0.64 3.2-13.34 3.22-18.68 0-1.82 0.79-4.15 1.78-5.19 1.13-1.2 1.57-3.2 1.19-5.41-0.86-4.97 1.97-14.68 5.37-18.4 1.62-1.78 3.68-5.95 4.72-9.6 1.01-3.55 1.98-6.54 2.16-6.65 0.17-0.12 2.77-2.52 5.75-5.35 9.85-9.35 11.25-12.9 9.47-23.75-0.45-2.71-1.21-4.91-1.72-4.9-0.52 0-2.79 0.8-5.03 1.78-2.25 0.98-5.85 1.94-8 2.15s-5.5 1.05-7.44 1.85c-1.95 0.79-3.94 1.25-4.41 1.03-1.73-0.84-1.92-6.05-0.53-14.31 2-11.88 2.2-17.25 0.85-21.57-0.65-2.05-1.45-5.83-1.82-8.4-0.84-5.96-5.5-13.59-8.84-14.5-0.38-0.11-0.83-0.14-1.31-0.1z"/>
  </g>
  <metadata>
    <rdf:RDF>
      <cc:Work>
        <dc:format>image/svg+xml</dc:format>
        <dc:type rdf:resource="http://purl.org/dc/dcmitype/StillImage"/>
        <cc:license rdf:resource="http://creativecommons.org/licenses/publicdomain/"/>
        <dc:publisher>
          <cc:Agent rdf:about="http://openclipart.org/">
            <dc:title>Openclipart</dc:title>
          </cc:Agent>
        </dc:publisher>
        <dc:title>Wolf Head Howl 2</dc:title>
        <dc:date>2008-12-23T15:30:07</dc:date>
        <dc:description>The head of a wolf howling</dc:description>
        <dc:source>http://openclipart.org/detail/20807/wolf-head-howl-2-by-choochus</dc:source>
        <dc:creator>
          <cc:Agent>
            <dc:title>choochus</dc:title>
          </cc:Agent>
        </dc:creator>
        <dc:subject>
          <rdf:Bag>
            <rdf:li>animal</rdf:li>
            <rdf:li>clip art</rdf:li>
            <rdf:li>clipart</rdf:li>
            <rdf:li>howl</rdf:li>
            <rdf:li>image</rdf:li>
            <rdf:li>media</rdf:li>
            <rdf:li>png</rdf:li>
            <rdf:li>public domain</rdf:li>
            <rdf:li>silhouette</rdf:li>
            <rdf:li>svg</rdf:li>
            <rdf:li>wolf</rdf:li>
          </rdf:Bag>
        </dc:subject>
      </cc:Work>
      <cc:License rdf:about="http://creativecommons.org/licenses/publicdomain/">
        <cc:permits rdf:resource="http://creativecommons.org/ns#Reproduction"/>
        <cc:permits rdf:resource="http://creativecommons.org/ns#Distribution"/>
        <cc:permits rdf:resource="http://creativecommons.org/ns#DerivativeWorks"/>
      </cc:License>
    </rdf:RDF>
  </metadata>
</svg>
